<svg width="159" height="96" viewBox="0 0 159 96" fill="none" xmlns="http://www.w3.org/2000/svg">
<path d="M108.065 38.5361C107.935 31.069 102.385 24.3362 94.673 24.1653C90.2076 24.073 90.2168 30.9951 94.673 31.0921C96.414 31.1291 97.8178 31.8217 99.1985 33.2671C100.455 34.5694 101.129 36.5966 101.161 38.5315C101.24 42.9877 108.171 42.9969 108.088 38.5315" fill="#263057"/>
<path d="M129.732 38.5361C129.722 28.555 126.078 18.919 119.48 11.4293C116.367 7.90462 112.553 5.0678 108.281 3.09991C104.01 1.13202 99.3753 0.0762882 94.6731 0.000112711C90.203 -0.0322122 90.2076 6.89918 94.6731 6.92689C98.2974 6.95768 101.875 7.74407 105.179 9.23581C108.662 10.8445 111.774 13.1556 114.322 16.0241C116.883 18.8713 118.93 22.1416 120.371 25.6892C121.991 29.7701 122.817 34.1225 122.805 38.513C122.805 42.9785 129.732 42.9785 129.732 38.513" fill="#263057"/>
<path d="M94.6222 19.044C99.2401 19.0856 103.285 21.0805 106.592 24.5854C109.981 28.2428 111.796 33.4332 111.828 38.536C111.861 42.9968 118.783 42.9968 118.755 38.536C118.64 25.1119 108.688 12.2604 94.6084 12.1219C90.1429 12.0711 90.1475 18.9978 94.6084 19.0486" fill="#263057"/>
<path d="M7.71897 58.0512C7.64763 60.0586 8.19404 62.0395 9.28442 63.7265C9.82324 64.5664 10.5717 65.2514 11.456 65.7138C12.3403 66.1762 13.3299 66.4 14.3271 66.3633C15.3253 66.3992 16.316 66.1791 17.2051 65.724C18.0942 65.269 18.8521 64.5941 19.4068 63.7635C20.4952 62.0568 21.041 60.0604 20.9722 58.0373C20.9722 55.6699 20.475 53.7227 19.4806 52.1957C18.9368 51.3297 18.1737 50.6228 17.2687 50.1468C16.3637 49.6708 15.3488 49.4425 14.3271 49.4851C13.3106 49.4429 12.301 49.6716 11.402 50.148C10.5029 50.6243 9.74662 51.331 9.21054 52.1957C8.21616 53.7196 7.71897 55.6668 7.71897 58.0373V58.0512ZM1 57.9727C1 53.8166 2.18217 50.4132 4.51418 47.7811C6.92008 45.0104 10.2034 43.6527 14.3271 43.6527C18.4509 43.6527 21.7711 45.0381 24.177 47.7395C26.509 50.3763 27.6912 53.775 27.6912 57.9727C27.6912 62.1703 26.509 65.5367 24.177 68.1689C21.7341 70.8796 18.4509 72.2187 14.3271 72.2187C10.2034 72.2187 6.93856 70.8334 4.51418 68.1319C2.18217 65.5367 1 62.138 1 57.9727Z" fill="#263057"/>
<path d="M36.8577 72.4449C33.422 72.4449 31.053 71.4936 29.7923 69.6188C29.4271 69.1059 29.2273 68.4936 29.2197 67.864C29.2197 65.9938 30.1756 65.0933 32.1197 65.0933C32.6923 65.0933 33.4589 65.4027 34.4887 66.0169C35.3275 66.5794 36.3056 66.8991 37.3148 66.9404C38.46 66.9404 39.0327 66.5202 39.0327 65.6797C39.0327 65.1487 38.2292 64.5345 36.6268 63.8326C34.4148 62.8398 32.9325 62.0778 32.1982 61.5237C30.5958 60.3415 29.7923 58.8499 29.7923 57.1321C29.7727 56.1825 29.9769 55.2416 30.3884 54.3856C30.8 53.5296 31.4073 52.7825 32.1613 52.2049C33.6824 51.0135 35.5728 50.3926 37.5042 50.4501C38.7615 50.439 40.0113 50.6452 41.1984 51.0596C42.404 51.3935 43.4676 52.1118 44.2277 53.1053C44.5553 53.5772 44.7397 54.1336 44.7588 54.7077C44.7725 55.049 44.7151 55.3895 44.5903 55.7074C44.4655 56.0254 44.276 56.314 44.0338 56.5549C43.7955 56.8032 43.5083 56.9995 43.1904 57.1314C42.8725 57.2634 42.5308 57.3281 42.1867 57.3214C41.3439 57.2113 40.5303 56.9401 39.79 56.5225C38.9936 56.1139 38.124 55.8675 37.2317 55.7975C36.2804 55.7975 35.8186 56.1393 35.8186 56.8689C35.8186 57.4415 36.2019 57.8617 37.0054 58.1665C38.7233 58.813 39.9839 59.3487 40.6997 59.6904C41.8984 60.2508 42.9918 61.013 43.9322 61.9439C44.7876 62.8956 45.2396 64.1424 45.1929 65.4211C45.2101 66.4358 44.9788 67.4392 44.5192 68.3439C44.0596 69.2486 43.3856 70.0272 42.5561 70.6116C40.9043 71.8438 38.8904 72.4935 36.8299 72.4588" fill="#263057"/>
<path d="M54.2299 57.8202L59.4619 52.3988C60.5332 51.2905 61.5999 50.7179 62.6297 50.7179C63.3024 50.7138 63.9555 50.944 64.4769 51.369C64.7211 51.583 64.9161 51.8474 65.0484 52.1439C65.1807 52.4405 65.2472 52.7622 65.2434 53.0869C65.2434 54.1166 64.7078 55.1095 63.678 56.0654L59.5219 59.9213L65.2896 66.6818C66.0442 67.5088 66.4783 68.5783 66.5133 69.6973C66.52 70.0394 66.4431 70.378 66.2894 70.6838C66.1358 70.9896 65.9099 71.2532 65.6313 71.4521C65.0522 71.8995 64.3406 72.1416 63.6087 72.1401C62.3896 72.1401 61.2998 71.5306 60.4039 70.293L54.2529 62.0455V67.6192C54.2529 70.6393 53.2232 72.1263 51.159 72.1263C49.0948 72.1263 48.0281 70.6393 48.0281 67.6192V46.4787C48.0281 43.4633 49.0625 41.9763 51.159 41.9763C53.2555 41.9763 54.2529 43.4633 54.2529 46.4787L54.2299 57.8202Z" fill="#263057"/>
<path d="M73.4402 61.3714C73.4005 62.6288 73.747 63.8681 74.433 64.9226C74.7535 65.4508 75.2082 65.8846 75.7509 66.1798C76.2936 66.4751 76.9048 66.6213 77.5223 66.6035C78.1457 66.6221 78.763 66.4766 79.3125 66.1816C79.862 65.8866 80.3243 65.4524 80.6532 64.9226C81.2856 63.8521 81.616 62.6304 81.6095 61.3871C81.603 60.1439 81.2598 58.9257 80.6163 57.8619C80.2767 57.3491 79.8162 56.9277 79.2754 56.6348C78.7345 56.3419 78.13 56.1866 77.5149 56.1825C76.8999 56.1784 76.2933 56.3256 75.7486 56.6113C75.2039 56.8969 74.7378 57.3121 74.3914 57.8203C73.7219 58.8803 73.3902 60.1187 73.4402 61.3714ZM67.0629 61.45C66.9948 58.543 68.0462 55.721 69.9999 53.5673C70.9514 52.5284 72.1163 51.7075 73.4147 51.1607C74.713 50.6139 76.1143 50.3543 77.5223 50.3994C80.6532 50.3994 83.1746 51.4662 85.0864 53.5673C86.9982 55.6684 87.9494 58.3052 87.9494 61.473C88.0401 64.354 87.0295 67.1613 85.1233 69.3234C83.1746 71.4615 80.6163 72.5328 77.5223 72.5328C76.0973 72.5788 74.6793 72.3134 73.3673 71.7551C72.0553 71.1968 70.8809 70.3591 69.926 69.3003C67.989 67.1542 66.9623 64.3391 67.0629 61.45Z" fill="#263057"/>
<path d="M8.047 80.603C8.32733 80.603 8.57383 80.7141 8.7865 80.9365C8.99917 81.1491 9.1055 81.3956 9.1055 81.676C9.1055 81.9563 8.917 82.3623 8.54 82.894L6.104 86.345V89.7525C6.104 90.8835 5.70283 91.449 4.9005 91.449C4.09817 91.449 3.697 90.8835 3.697 89.7525V86.345L1.2465 82.894C0.888833 82.3913 0.71 81.9853 0.71 81.676C0.71 81.3666 0.826 81.1105 1.058 80.9075C1.29 80.7045 1.5655 80.603 1.8845 80.603C2.27117 80.603 2.682 80.9123 3.117 81.531L4.915 84.112L6.742 81.502C7.15767 80.9026 7.59267 80.603 8.047 80.603ZM8.01075 87.36C8.01075 86.171 8.37808 85.1753 9.11275 84.373C9.85708 83.561 10.8141 83.155 11.9838 83.155C13.1728 83.155 14.1298 83.5561 14.8548 84.3585C15.5798 85.1608 15.9423 86.1613 15.9423 87.36C15.9423 88.549 15.5846 89.5398 14.8693 90.3325C14.1249 91.1445 13.1631 91.5505 11.9838 91.5505C10.8141 91.5505 9.85225 91.1396 9.09825 90.318C8.37325 89.5253 8.01075 88.5393 8.01075 87.36ZM10.4323 87.331C10.4323 87.8626 10.5579 88.3121 10.8093 88.6795C11.0896 89.1048 11.4811 89.3175 11.9838 89.3175C12.4961 89.3175 12.8924 89.1048 13.1728 88.6795C13.4144 88.3218 13.5353 87.8723 13.5353 87.331C13.5353 86.809 13.4096 86.3643 13.1583 85.997C12.8779 85.5716 12.4864 85.359 11.9838 85.359C11.4714 85.359 11.0751 85.5668 10.7948 85.9825C10.5531 86.3498 10.4323 86.7993 10.4323 87.331ZM17.3579 88.114V84.9965C17.3579 83.8655 17.7494 83.3 18.5324 83.3C19.3154 83.3 19.7069 83.8655 19.7069 84.9965V87.6355C19.7069 88.1575 19.7746 88.549 19.9099 88.81C20.0936 89.1676 20.4271 89.3465 20.9104 89.3465C21.3938 89.3465 21.7273 89.1676 21.9109 88.81C22.0463 88.549 22.1139 88.1575 22.1139 87.6355V84.9965C22.1139 83.8655 22.5054 83.3 23.2884 83.3C24.0618 83.3 24.4484 83.8655 24.4484 84.9965V88.114C24.4484 89.2353 24.1391 90.0908 23.5204 90.6805C22.9114 91.2605 22.0414 91.5505 20.9104 91.5505C19.7794 91.5505 18.9046 91.2605 18.2859 90.6805C17.6673 90.0908 17.3579 89.2353 17.3579 88.114ZM26.3008 89.709V84.9965C26.3008 83.8655 26.6971 83.3 27.4898 83.3C27.9538 83.3 28.326 83.5465 28.6063 84.0395C29.0896 83.5175 29.6165 83.2565 30.1868 83.2565C30.5251 83.2565 30.8103 83.3676 31.0423 83.59C31.2743 83.8026 31.3903 84.0781 31.3903 84.4165C31.3903 84.7838 31.1921 85.0786 30.7958 85.301C30.7475 85.3203 30.356 85.4701 29.6213 85.7505C29.1573 85.9341 28.877 86.142 28.7803 86.374C28.703 86.5576 28.6643 86.8573 28.6643 87.273V89.709C28.6643 90.8496 28.2728 91.42 27.4898 91.42C26.6971 91.42 26.3008 90.8496 26.3008 89.709ZM40.0684 89.738C40.0684 90.8786 39.6673 91.449 38.8649 91.449C38.0626 91.449 37.6614 90.8786 37.6614 89.738V82.314C37.6614 81.1733 38.0626 80.603 38.8649 80.603C39.6673 80.603 40.0684 81.1733 40.0684 82.314V89.738ZM42.1522 89.709V84.9965C42.1522 83.8655 42.5486 83.3 43.3412 83.3C43.8052 83.3 44.1774 83.5465 44.4577 84.0395C44.9024 83.5465 45.5887 83.3 46.5167 83.3C48.4211 83.3 49.3732 84.315 49.3732 86.345V89.709C49.3732 90.8496 48.9817 91.42 48.1987 91.42C47.4157 91.42 47.0242 90.8496 47.0242 89.709V87.0555C47.0242 86.4755 46.9566 86.0646 46.8212 85.823C46.6376 85.475 46.2847 85.301 45.7627 85.301C44.9314 85.301 44.5157 85.8761 44.5157 87.0265V89.709C44.5157 90.8496 44.1242 91.42 43.3412 91.42C42.5486 91.42 42.1522 90.8496 42.1522 89.709ZM51.7 85.562C50.7624 85.562 50.2935 85.2236 50.2935 84.547C50.2935 83.8993 50.7624 83.5513 51.7 83.503C51.7 82.5556 51.7194 81.9853 51.758 81.792C51.903 81.1056 52.2752 80.7625 52.8745 80.7625C53.4642 80.7625 53.8315 81.1056 53.9765 81.792C54.0152 81.9853 54.0345 82.5556 54.0345 83.503C55.1655 83.503 55.731 83.851 55.731 84.547C55.731 85.2236 55.1655 85.562 54.0345 85.562V89.709C54.0345 90.8496 53.6479 91.42 52.8745 91.42C52.0915 91.42 51.7 90.8496 51.7 89.709V85.562ZM58.4541 88.0125C58.5024 88.4668 58.6909 88.8148 59.0196 89.0565C59.3483 89.2981 59.7494 89.419 60.2231 89.419C60.6194 89.419 61.0979 89.2933 61.6586 89.042C62.2193 88.781 62.5673 88.6505 62.7026 88.6505C63.3213 88.6505 63.6306 88.955 63.6306 89.564C63.6306 89.796 63.5436 90.028 63.3696 90.26C63.0603 90.6853 62.5673 91.0091 61.8906 91.2315C61.3203 91.4248 60.7258 91.5215 60.1071 91.5215C58.9471 91.5215 57.9804 91.1251 57.2071 90.3325C56.4338 89.5301 56.0471 88.5441 56.0471 87.3745C56.0471 86.2145 56.4144 85.2236 57.1491 84.402C57.8934 83.5803 58.8408 83.1695 59.9911 83.1695C60.5614 83.1695 61.0786 83.2758 61.5426 83.4885C62.2096 83.7978 62.7558 84.257 63.1811 84.866C63.6064 85.475 63.8191 86.1371 63.8191 86.8525C63.8191 87.2391 63.6789 87.534 63.3986 87.737C63.1569 87.9206 62.8379 88.0125 62.4416 88.0125H58.4541ZM58.4251 86.4755H61.5136C61.4846 86.0695 61.3251 85.736 61.0351 85.475C60.7548 85.214 60.4116 85.0835 60.0056 85.0835C59.5899 85.0835 59.2419 85.214 58.9616 85.475C58.6813 85.7263 58.5024 86.0598 58.4251 86.4755ZM65.1687 89.709V84.9965C65.1687 83.8655 65.5651 83.3 66.3577 83.3C66.8217 83.3 67.1939 83.5465 67.4742 84.0395C67.9576 83.5175 68.4844 83.2565 69.0547 83.2565C69.3931 83.2565 69.6782 83.3676 69.9102 83.59C70.1422 83.8026 70.2582 84.0781 70.2582 84.4165C70.2582 84.7838 70.0601 85.0786 69.6637 85.301C69.6154 85.3203 69.2239 85.4701 68.4892 85.7505C68.0252 85.9341 67.7449 86.142 67.6482 86.374C67.5709 86.5576 67.5322 86.8573 67.5322 87.273V89.709C67.5322 90.8496 67.1407 91.42 66.3577 91.42C65.5651 91.42 65.1687 90.8496 65.1687 89.709ZM71.1086 89.709V84.9965C71.1086 83.8655 71.505 83.3 72.2976 83.3C72.7616 83.3 73.1338 83.5465 73.4141 84.0395C73.8588 83.5465 74.5451 83.3 75.4731 83.3C77.3775 83.3 78.3296 84.315 78.3296 86.345V89.709C78.3296 90.8496 77.9381 91.42 77.1551 91.42C76.3721 91.42 75.9806 90.8496 75.9806 89.709V87.0555C75.9806 86.4755 75.913 86.0646 75.7776 85.823C75.594 85.475 75.2411 85.301 74.7191 85.301C73.8878 85.301 73.4721 85.8761 73.4721 87.0265V89.709C73.4721 90.8496 73.0806 91.42 72.2976 91.42C71.505 91.42 71.1086 90.8496 71.1086 89.709ZM82.1644 88.0125C82.2128 88.4668 82.4013 88.8148 82.7299 89.0565C83.0586 89.2981 83.4598 89.419 83.9334 89.419C84.3298 89.419 84.8083 89.2933 85.3689 89.042C85.9296 88.781 86.2776 88.6505 86.4129 88.6505C87.0316 88.6505 87.3409 88.955 87.3409 89.564C87.3409 89.796 87.2539 90.028 87.0799 90.26C86.7706 90.6853 86.2776 91.0091 85.6009 91.2315C85.0306 91.4248 84.4361 91.5215 83.8174 91.5215C82.6574 91.5215 81.6908 91.1251 80.9174 90.3325C80.1441 89.5301 79.7574 88.5441 79.7574 87.3745C79.7574 86.2145 80.1248 85.2236 80.8594 84.402C81.6038 83.5803 82.5511 83.1695 83.7014 83.1695C84.2718 83.1695 84.7889 83.2758 85.2529 83.4885C85.9199 83.7978 86.4661 84.257 86.8914 84.866C87.3168 85.475 87.5294 86.1371 87.5294 86.8525C87.5294 87.2391 87.3893 87.534 87.1089 87.737C86.8673 87.9206 86.5483 88.0125 86.1519 88.0125H82.1644ZM82.1354 86.4755H85.2239C85.1949 86.0695 85.0354 85.736 84.7454 85.475C84.4651 85.214 84.1219 85.0835 83.7159 85.0835C83.3003 85.0835 82.9523 85.214 82.6719 85.475C82.3916 85.7263 82.2128 86.0598 82.1354 86.4755ZM89.3576 85.562C88.4199 85.562 87.9511 85.2236 87.9511 84.547C87.9511 83.8993 88.4199 83.5513 89.3576 83.503C89.3576 82.5556 89.3769 81.9853 89.4156 81.792C89.5606 81.1056 89.9327 80.7625 90.5321 80.7625C91.1217 80.7625 91.4891 81.1056 91.6341 81.792C91.6727 81.9853 91.6921 82.5556 91.6921 83.503C92.8231 83.503 93.3886 83.851 93.3886 84.547C93.3886 85.2236 92.8231 85.562 91.6921 85.562V89.709C91.6921 90.8496 91.3054 91.42 90.5321 91.42C89.7491 91.42 89.3576 90.8496 89.3576 89.709V85.562ZM100.851 82.981C99.9808 82.981 99.4395 82.9568 99.2268 82.9085C98.5695 82.7731 98.2408 82.4251 98.2408 81.8645C98.2408 81.1105 98.816 80.7335 99.9663 80.7335H104.157C105.298 80.7335 105.868 81.1105 105.868 81.8645C105.868 82.4251 105.539 82.7731 104.882 82.9085C104.669 82.9568 104.128 82.981 103.258 82.981V89.738C103.258 90.8786 102.857 91.449 102.054 91.449C101.252 91.449 100.851 90.8786 100.851 89.738V82.981ZM107.51 88.0125C107.558 88.4668 107.747 88.8148 108.075 89.0565C108.404 89.2981 108.805 89.419 109.279 89.419C109.675 89.419 110.154 89.2933 110.714 89.042C111.275 88.781 111.623 88.6505 111.758 88.6505C112.377 88.6505 112.686 88.955 112.686 89.564C112.686 89.796 112.599 90.028 112.425 90.26C112.116 90.6853 111.623 91.0091 110.946 91.2315C110.376 91.4248 109.782 91.5215 109.163 91.5215C108.003 91.5215 107.036 91.1251 106.263 90.3325C105.49 89.5301 105.103 88.5441 105.103 87.3745C105.103 86.2145 105.47 85.2236 106.205 84.402C106.949 83.5803 107.897 83.1695 109.047 83.1695C109.617 83.1695 110.134 83.2758 110.598 83.4885C111.265 83.7978 111.812 84.257 112.237 84.866C112.662 85.475 112.875 86.1371 112.875 86.8525C112.875 87.2391 112.735 87.534 112.454 87.737C112.213 87.9206 111.894 88.0125 111.497 88.0125H107.51ZM107.481 86.4755H110.569C110.54 86.0695 110.381 85.736 110.091 85.475C109.811 85.214 109.467 85.0835 109.061 85.0835C108.646 85.0835 108.298 85.214 108.017 85.475C107.737 85.7263 107.558 86.0598 107.481 86.4755ZM114.225 89.709V84.9965C114.225 83.8655 114.621 83.3 115.414 83.3C115.878 83.3 116.25 83.5465 116.53 84.0395C117.013 83.5175 117.54 83.2565 118.111 83.2565C118.449 83.2565 118.734 83.3676 118.966 83.59C119.198 83.8026 119.314 84.0781 119.314 84.4165C119.314 84.7838 119.116 85.0786 118.72 85.301C118.671 85.3203 118.28 85.4701 117.545 85.7505C117.081 85.9341 116.801 86.142 116.704 86.374C116.627 86.5576 116.588 86.8573 116.588 87.273V89.709C116.588 90.8496 116.197 91.42 115.414 91.42C114.621 91.42 114.225 90.8496 114.225 89.709ZM120.165 89.709V84.9965C120.165 83.8655 120.561 83.3 121.354 83.3C121.818 83.3 122.19 83.5465 122.47 84.0395C122.953 83.5175 123.48 83.2565 124.051 83.2565C124.389 83.2565 124.674 83.3676 124.906 83.59C125.138 83.8026 125.254 84.0781 125.254 84.4165C125.254 84.7838 125.056 85.0786 124.66 85.301C124.611 85.3203 124.22 85.4701 123.485 85.7505C123.021 85.9341 122.741 86.142 122.644 86.374C122.567 86.5576 122.528 86.8573 122.528 87.273V89.709C122.528 90.8496 122.137 91.42 121.354 91.42C120.561 91.42 120.165 90.8496 120.165 89.709ZM128.526 89.709C128.526 90.8496 128.139 91.42 127.366 91.42C126.583 91.42 126.191 90.8496 126.191 89.709V84.9965C126.191 83.8655 126.583 83.3 127.366 83.3C128.139 83.3 128.526 83.8655 128.526 84.9965V89.709ZM126.003 81.3135C126.003 80.9365 126.133 80.6175 126.394 80.3565C126.665 80.0955 126.989 79.965 127.366 79.965C127.743 79.965 128.057 80.0955 128.308 80.3565C128.569 80.6175 128.7 80.9365 128.7 81.3135C128.7 81.6905 128.569 82.0095 128.308 82.2705C128.057 82.5315 127.743 82.662 127.366 82.662C126.979 82.662 126.655 82.5363 126.394 82.285C126.133 82.024 126.003 81.7001 126.003 81.3135ZM130.965 85.562C130.028 85.562 129.559 85.2236 129.559 84.547C129.559 83.8993 130.028 83.5513 130.965 83.503C130.965 82.5556 130.985 81.9853 131.023 81.792C131.168 81.1056 131.54 80.7625 132.14 80.7625C132.729 80.7625 133.097 81.1056 133.242 81.792C133.28 81.9853 133.3 82.5556 133.3 83.503C134.431 83.503 134.996 83.851 134.996 84.547C134.996 85.2236 134.431 85.562 133.3 85.562V89.709C133.3 90.8496 132.913 91.42 132.14 91.42C131.357 91.42 130.965 90.8496 130.965 89.709V85.562ZM135.312 87.36C135.312 86.171 135.68 85.1753 136.414 84.373C137.159 83.561 138.116 83.155 139.285 83.155C140.474 83.155 141.431 83.5561 142.156 84.3585C142.881 85.1608 143.244 86.1613 143.244 87.36C143.244 88.549 142.886 89.5398 142.171 90.3325C141.426 91.1445 140.465 91.5505 139.285 91.5505C138.116 91.5505 137.154 91.1396 136.4 90.318C135.675 89.5253 135.312 88.5393 135.312 87.36ZM137.734 87.331C137.734 87.8626 137.859 88.3121 138.111 88.6795C138.391 89.1048 138.783 89.3175 139.285 89.3175C139.798 89.3175 140.194 89.1048 140.474 88.6795C140.716 88.3218 140.837 87.8723 140.837 87.331C140.837 86.809 140.711 86.3643 140.46 85.997C140.179 85.5716 139.788 85.359 139.285 85.359C138.773 85.359 138.377 85.5668 138.096 85.9825C137.855 86.3498 137.734 86.7993 137.734 87.331ZM144.703 89.709V84.9965C144.703 83.8655 145.099 83.3 145.892 83.3C146.356 83.3 146.728 83.5465 147.008 84.0395C147.492 83.5175 148.019 83.2565 148.589 83.2565C148.927 83.2565 149.212 83.3676 149.444 83.59C149.676 83.8026 149.792 84.0781 149.792 84.4165C149.792 84.7838 149.594 85.0786 149.198 85.301C149.15 85.3203 148.758 85.4701 148.023 85.7505C147.559 85.9341 147.279 86.142 147.182 86.374C147.105 86.5576 147.066 86.8573 147.066 87.273V89.709C147.066 90.8496 146.675 91.42 145.892 91.42C145.099 91.42 144.703 90.8496 144.703 89.709ZM155.979 83.3C156.752 83.3 157.139 83.6721 157.139 84.4165C157.139 84.6581 157.076 84.9288 156.95 85.2285L153.369 93.711C153.098 94.349 152.755 94.668 152.339 94.668C151.991 94.668 151.711 94.5665 151.498 94.3635C151.286 94.1605 151.179 93.885 151.179 93.537C151.179 93.305 151.247 93.0391 151.382 92.7395L152.339 90.637L149.976 85.1125C149.889 84.9095 149.845 84.692 149.845 84.46C149.845 84.1313 149.952 83.8558 150.164 83.6335C150.387 83.4111 150.662 83.3 150.991 83.3C151.329 83.3 151.595 83.4111 151.788 83.6335C151.904 83.7688 152.035 84.0346 152.18 84.431L153.514 87.969L154.949 84.228C155.191 83.6093 155.534 83.3 155.979 83.3Z" fill="#263057"/>
<path d="M91.2698 46.4787C91.2698 43.4633 92.3042 41.9763 94.3637 41.9763C96.4233 41.9763 97.4208 43.4633 97.4208 46.4787V67.6331C97.4208 70.6532 96.3864 72.1401 94.3637 72.1401C92.3411 72.1401 91.2698 70.6532 91.2698 67.6331V46.4787Z" fill="#263057"/>
<path d="M101.812 67.633V55.2249C101.812 52.2463 102.842 50.7594 104.943 50.7594C106.162 50.7594 107.155 51.4059 107.88 52.7035C109.067 51.4059 110.859 50.7594 113.306 50.7594C118.307 50.7594 120.829 53.4285 120.829 58.776V67.633C120.829 70.6531 119.794 72.14 117.735 72.14C115.675 72.14 114.641 70.6531 114.641 67.633V60.6462C114.641 59.1177 114.451 58.051 114.105 57.4137C113.611 56.4902 112.692 56.0284 111.334 56.0284C109.155 56.0284 108.046 57.5523 108.046 60.5723V67.633C108.046 70.6531 107.017 72.14 104.957 72.14C102.897 72.14 101.826 70.6531 101.826 67.633" fill="#263057"/>
<path d="M130.069 58.5011H138.201C138.151 57.498 137.712 56.554 136.977 55.8689C136.215 55.2111 135.243 54.8462 134.237 54.8394C133.23 54.8327 132.253 55.1845 131.482 55.832C130.728 56.5401 130.231 57.4792 130.069 58.5011ZM130.143 62.551C130.172 63.0941 130.321 63.6241 130.579 64.1031C130.837 64.582 131.197 64.9981 131.635 65.3217C132.554 65.9849 133.669 66.3214 134.802 66.2776C136.121 66.2037 137.41 65.8528 138.584 65.2478C140.071 64.5967 140.99 64.2549 141.332 64.2549C142.976 64.2549 143.775 65.0538 143.775 66.6608C143.757 67.3351 143.517 67.9845 143.091 68.508C142.099 69.7551 140.733 70.6516 139.194 71.0663C137.68 71.5718 136.094 71.8291 134.498 71.8282C133.074 71.8635 131.658 71.5998 130.343 71.0541C129.027 70.5085 127.841 69.693 126.86 68.6604C125.859 67.6371 125.074 66.4239 124.55 65.0923C124.025 63.7607 123.773 62.3377 123.807 60.907C123.748 58.0112 124.799 55.2024 126.744 53.0566C128.185 51.5131 130.068 50.4533 132.135 50.0225C134.202 49.5918 136.352 49.8112 138.289 50.6507C140.031 51.4435 141.523 52.6989 142.602 54.2804C143.69 55.8067 144.277 57.6333 144.283 59.5078C144.306 59.9579 144.217 60.4068 144.024 60.814C143.83 61.2211 143.538 61.5736 143.175 61.8398C142.438 62.3552 141.551 62.6103 140.653 62.5648L130.143 62.551Z" fill="#263057"/>
<path d="M148.31 56.712C145.83 56.712 144.615 55.8346 144.615 54.0429C144.615 52.325 145.839 51.4061 148.31 51.2721C148.261 49.7696 148.311 48.2655 148.462 46.7697C148.845 44.9734 149.847 44.0544 151.403 44.0544C152.96 44.0544 153.925 44.978 154.308 46.7697C154.459 48.2655 154.51 49.7696 154.46 51.2721C157.441 51.2721 158.929 52.1957 158.926 54.0429C158.926 55.8346 157.439 56.712 154.46 56.712V67.6332C154.46 70.6533 153.426 72.1402 151.403 72.1402C149.381 72.1402 148.31 70.6533 148.31 67.6332V56.712Z" fill="#263057"/>
</svg>
